<?xml version="1.0" standalone="no"?>
<!DOCTYPE svg PUBLIC "-//W3C//DTD SVG 20010904//EN"
 "http://www.w3.org/TR/2001/REC-SVG-20010904/DTD/svg10.dtd">
<svg version="1.0" xmlns="http://www.w3.org/2000/svg"
 width="300.000000pt" height="136.000000pt" viewBox="0 0 300.000000 136.000000"
 preserveAspectRatio="xMidYMid meet">

<g transform="translate(0.000000,136.000000) scale(0.100000,-0.100000)"
fill="#000000" stroke="none">
<path d="M1060 1333 c-160 -15 -213 -40 -262 -124 -21 -35 -39 -66 -40 -71 -2
-4 -44 -12 -93 -17 -277 -29 -434 -132 -484 -319 -10 -34 -16 -42 -35 -42 -51
0 -59 -62 -10 -74 13 -4 33 -15 44 -26 12 -12 33 -20 55 -20 19 0 35 -4 35 -9
0 -5 12 -24 26 -41 83 -98 241 -93 312 10 l27 39 408 1 c242 0 407 -4 407 -9
0 -5 12 -24 26 -41 83 -98 241 -93 312 10 l27 39 78 1 c63 0 81 4 97 20 11 11
28 20 38 20 30 0 54 24 50 51 -2 20 -10 25 -47 29 l-45 5 -17 65 c-25 96 -31
109 -98 193 -136 168 -332 280 -543 307 -70 9 -194 11 -268 3z m118 -102 c9
-5 12 -30 10 -87 l-3 -79 -178 -3 c-205 -3 -205 -3 -160 79 34 64 64 78 183
89 122 10 134 11 148 1z m219 -32 c85 -26 158 -77 158 -109 l0 -25 -160 0
-160 0 -3 69 c-4 95 -2 99 55 90 27 -4 76 -15 110 -25z m-888 -363 c37 -20 51
-39 61 -81 34 -149 -165 -220 -235 -85 -55 106 67 221 174 166z m1180 0 c37
-20 51 -39 61 -81 19 -85 -37 -155 -124 -155 -38 0 -52 6 -82 33 -109 99 14
271 145 203z"/>
<path d="M1994 1015 c-10 -25 6 -35 56 -35 49 0 70 16 47 39 -17 17 -96 14
-103 -4z"/>
<path d="M2167 1016 c-12 -30 16 -36 169 -36 114 0 154 3 163 13 24 30 -9 37
-170 37 -124 0 -158 -3 -162 -14z"/>
<path d="M2082 891 c-8 -5 -12 -17 -10 -27 3 -18 18 -19 268 -22 146 -1 275 0
288 3 26 6 30 40 6 49 -24 9 -537 7 -552 -3z"/>
<path d="M2710 871 c0 -21 19 -31 55 -31 36 0 55 10 55 31 0 16 -8 19 -55 19
-47 0 -55 -3 -55 -19z"/>
<path d="M2130 735 c-6 -8 -9 -19 -5 -25 4 -7 133 -10 385 -10 386 0 420 3
375 37 -29 20 -737 19 -755 -2z"/>
<path d="M1303 333 c-13 -2 -32 -16 -44 -31 -30 -39 -19 -75 46 -143 60 -63
65 -79 35 -109 -24 -24 -38 -25 -67 -5 -23 16 -37 7 -27 -19 5 -12 20 -16 59
-16 64 0 90 23 90 80 0 33 -8 47 -58 98 -60 64 -67 81 -41 106 18 19 38 20 65
6 16 -9 19 -7 19 10 0 11 -6 20 -14 20 -8 0 -20 2 -28 4 -7 2 -23 1 -35 -1z"/>
<path d="M1893 330 c-13 -5 -23 -18 -23 -29 0 -18 2 -19 31 -4 28 14 32 14 50
-3 40 -36 20 -124 -47 -202 -19 -22 -34 -50 -34 -61 0 -19 6 -21 70 -21 56 0
70 3 70 15 0 11 -12 15 -50 15 l-51 0 36 47 c46 61 65 105 65 155 0 52 -13 74
-51 87 -37 13 -37 13 -66 1z"/>
<path d="M900 170 c0 -153 1 -160 20 -160 18 0 20 7 20 80 l0 80 40 0 c29 0
40 4 40 15 0 11 -11 15 -40 15 l-40 0 0 50 0 50 45 0 c33 0 45 4 45 15 0 12
-14 15 -65 15 l-65 0 0 -160z"/>
<path d="M1105 308 c-3 -13 -16 -78 -30 -146 -14 -67 -28 -129 -32 -137 -4
-11 2 -15 21 -15 20 0 26 5 26 23 0 55 11 68 49 65 27 -2 37 -8 39 -23 8 -55
13 -65 33 -65 17 0 20 4 15 23 -4 12 -19 84 -34 159 -27 137 -27 138 -54 138
-20 0 -29 -6 -33 -22z m49 -103 c4 -22 9 -48 12 -57 4 -14 -1 -18 -25 -18 -36
0 -37 9 -20 91 12 57 22 52 33 -16z"/>
<path d="M1410 315 c0 -10 10 -15 30 -15 l30 0 1 -62 c1 -35 0 -100 -1 -145
-2 -78 0 -83 19 -83 20 0 21 5 21 145 l0 145 30 0 c20 0 30 5 30 15 0 12 -16
15 -80 15 -64 0 -80 -3 -80 -15z"/>
<path d="M1675 303 c4 -15 19 -86 34 -158 25 -119 29 -130 51 -133 28 -5 36 8
45 67 6 44 40 197 51 234 4 13 0 17 -20 17 -18 0 -26 -5 -26 -17 0 -30 -42
-244 -47 -239 -2 2 -15 60 -27 128 -21 113 -24 123 -46 126 -20 3 -22 1 -15
-25z"/>
<path d="M2055 170 c0 -144 2 -160 17 -160 15 0 17 17 20 160 3 154 2 160 -17
160 -19 0 -20 -7 -20 -160z"/>
</g>
</svg>
